# xmcd
#
# Track frame offsets:
#	150
#	17919
#	36248
#	53074
#	72241
#	92417
#	109762
#	126990
#	145457
#	167323
#	184036
#	200725
#	215350
#	234666
#	252991
#	268854
#	286071
#	303411
#	319512
#
# Disc length: 4472 seconds
#
# Revision: 1
# Processed by: cddbd v1.5.1PL0 Copyright (c) Steve Scherf et al.
# Submitted via: audiograbber 1.80
#
DISCID=15117613
DTITLE=Nashville favorites - it's all about country
DYEAR=1900
DGENRE=
TTITLE0=Kenny Chesney - Young
TTITLE1=Martina McBride - This one's for the girls
TTITLE2=Brad Paisley - Celebrity
TTITLE3=Sara Evans - Restless
TTITLE4=Lonestar - Amazed (captains mix)
TTITLE5=It's Five o'clock Somewhere - Alan Jackson and Jimmy Buffett
TTITLE6=Carolyn Dawn Johnson - Complicated
TTITLE7=Kellie Coffey - Dance With My Father
TTITLE8=Kenny Chesney - When The Sun Goes Down
TTITLE9=Rachel Proctor - Me And Emily
TTITLE10=Brooks and Dunn - You Can't Take The Honky Tonk Out Of The Girl
TTITLE11=Martina McBride - In My Daughter's Eyes
TTITLE12=Carolyn Dawn Johnson - Dress Rehearsal
TTITLE13=Drive (for daddy Gene) - Alan Jackson
TTITLE14=Kenny Chesney - No Shoes, No Shirt, No Problems
TTITLE15=Diamond Rio - Beatutiful Mess
TTITLE16=Lonestar - Walking in Memphis
TTITLE17=Phil Vassar - In a Real Love
TTITLE18=Martina McBride - Somewhere Over The Rainbow (live)
EXTD=
EXTT0=
EXTT1=
EXTT2=
EXTT3=
EXTT4=
EXTT5=
EXTT6=
EXTT7=
EXTT8=
EXTT9=
EXTT10=
EXTT11=
EXTT12=
EXTT13=
EXTT14=
EXTT15=
EXTT16=
EXTT17=
EXTT18=
PLAYORDER=
